SplineFontDB: 3.0
FontName: Ponyo
FullName: Ponyo
FamilyName: Ponyo
Weight: Medium
Copyright: Created by Robert Martinez, with FontForge 2.0 (http://fontforge.sf.net), released under SIL OpenFontLicense (http://scripts.sil.org/OFL)
FontLog: "Ponyo is an experimental font to make myself familiar with the creation processes of a font. It is rather symmetric and composed of a very small subset of shapes." 
Version: 001.004
ItalicAngle: 0
UnderlinePosition: -277
UnderlineWidth: 137
Ascent: 1543
Descent: 505
sfntRevision: 0x00010000
LayerCount: 2
Layer: 0 0 "Back"  1
Layer: 1 0 "Fore"  0
XUID: [1021 678 1122219158 16397937]
FSType: 0
OS2Version: 3
OS2_WeightWidthSlopeOnly: 0
OS2_UseTypoMetrics: 1
CreationTime: 1253822328
ModificationTime: 1343205572
PfmFamily: 33
TTFWeight: 500
TTFWidth: 5
LineGap: 252
VLineGap: 0
Panose: 2 11 8 3 4 0 0 0 0 0
OS2TypoAscent: 0
OS2TypoAOffset: 1
OS2TypoDescent: 0
OS2TypoDOffset: 1
OS2TypoLinegap: 252
OS2WinAscent: -93
OS2WinAOffset: 1
OS2WinDescent: 0
OS2WinDOffset: 1
HheadAscent: -93
HheadAOffset: 1
HheadDescent: 0
HheadDOffset: 1
OS2SubXSize: 1824
OS2SubYSize: 1964
OS2SubXOff: 0
OS2SubYOff: 393
OS2SupXSize: 1824
OS2SupYSize: 1964
OS2SupXOff: 0
OS2SupYOff: 1347
OS2StrikeYSize: 137
OS2StrikeYPos: 724
OS2Vendor: 'PfEd'
OS2CodePages: 00000001.00000000
OS2UnicodeRanges: 00000002.00000000.00000000.00000000
MarkAttachClasses: 1
DEI: 91125
LangName: 1033 "" "" "" "" "" "" "" "" "" "" "" "" "" "" "http://scripts.sil.org/OFL" 
Encoding: UnicodeBmp
UnicodeInterp: none
NameList: Adobe Glyph List
DisplaySize: -96
AntiAlias: 1
FitToEm: 0
WinInfo: 56 8 2
BeginPrivate: 9
BlueValues 34 [-6 0 842 842 1223 1223 1403 1403]
OtherBlues 11 [-404 -382]
BlueScale 8 0.039625
BlueShift 1 6
StdHW 5 [180]
StdVW 5 [281]
StemSnapH 41 [146 168 177 180 185 191 224 252 418 421]
StemSnapV 21 [278 281 286 415 483]
ExpansionFactor 4 0.06
EndPrivate
Grid
-2805.48 1223.19 m 0
 5610.96 1223.19 l 0
  Named: "alte h+APYA-he" 
EndSplineSet

StartChar: .notdef
Encoding: 65536 -1 0
Width: 1402
VWidth: 2805
Flags: W
HStem: 0 140<281 1122> 1355 140<281 1122>
VStem: 140 141<140 1355> 1122 140<140 1355>
LayerCount: 2
Fore
SplineSet
140 0 m 5
 140 1495 l 5
 1262 1495 l 5
 1262 0 l 5
 140 0 l 5
281 140 m 5
 1122 140 l 5
 1122 1355 l 5
 281 1355 l 5
 281 140 l 5
EndSplineSet
Validated: 1
EndChar

StartChar: exclam
Encoding: 33 33 1
Width: 476
VWidth: 2805
GlyphClass: 2
Flags: W
HStem: 0 191<99.291 377.709> 1383 20G<148.5 328.5>
VStem: 98 281<3.49673 187.503 345.497 1399.5>
LayerCount: 2
Fore
SplineSet
171 1403 m 2
 306 1403 l 2
 351 1403 379 1381 379 1347 c 2
 379 398 l 2
 379 364 351 342 306 342 c 2
 171 342 l 2
 126 342 98 364 98 398 c 2
 98 1347 l 2
 98 1381 126 1403 171 1403 c 2
171 191 m 2
 306 191 l 2
 351 191 379 169 379 135 c 2
 379 56 l 2
 379 22 351 0 306 0 c 2
 171 0 l 2
 126 0 98 22 98 56 c 2
 98 135 l 2
 98 169 126 191 171 191 c 2
EndSplineSet
Validated: 1
EndChar

StartChar: one
Encoding: 49 49 2
Width: 729
VWidth: 2805
GlyphClass: 2
Flags: W
HStem: -6 21G<362 376 633 648> 1223 180<85.291 365>
VStem: 365 280<0.088623 1219.06>
LayerCount: 2
Fore
SplineSet
157 1403 m 2
 421 1403 l 2
 550 1403 645 1307 645 1178 c 2
 645 56 l 2
 645 34 645 16 651 -6 c 1
 615 -3 561 0 505 0 c 0
 449 0 393 0 359 -6 c 1
 365 16 365 34 365 56 c 2
 365 1178 l 2
 365 1206 348 1223 320 1223 c 2
 157 1223 l 2
 112 1223 84 1245 84 1279 c 2
 84 1347 l 2
 84 1381 112 1403 157 1403 c 2
EndSplineSet
Validated: 1
EndChar

StartChar: two
Encoding: 50 50 3
Width: 981
VWidth: 2805
GlyphClass: 2
Flags: W
HStem: 0 191<365 896.709> 553 235<365 617> 1223 180<365.012 617>
VStem: 84 281<191 553 1058.5 1219.06> 617 281<788.012 1219.06>
LayerCount: 2
Fore
SplineSet
309 1403 m 2
 673 1403 l 2
 802 1403 898 1307 898 1178 c 2
 898 777 l 2
 898 648 802 553 673 553 c 2
 410 553 l 2
 382 553 365 536 365 508 c 2
 365 236 l 2
 365 208 382 191 410 191 c 2
 825 191 l 2
 870 191 898 169 898 135 c 2
 898 0 l 1
 84 0 l 1
 84 564 l 6
 84 693 180 788 309 788 c 6
 572 788 l 6
 600 788 617 805 617 833 c 6
 617 1178 l 2
 617 1206 600 1223 572 1223 c 2
 410 1223 l 2
 382 1223 365 1206 365 1178 c 2
 365 1111 l 2
 365 1077 337 1055 292 1055 c 2
 157 1055 l 2
 112 1055 84 1077 84 1111 c 2
 84 1178 l 2
 84 1307 180 1403 309 1403 c 2
EndSplineSet
Validated: 1
EndChar

StartChar: three
Encoding: 51 51 4
Width: 1007
VWidth: 2805
GlyphClass: 2
Flags: W
HStem: 0 180<365 645> 662 180<385.291 645> 1223 180<365 645>
VStem: 84 281<182.972 344.503 1058.5 1219.06> 645 281<182.972 659.311 844.028 1219.06>
LayerCount: 2
Fore
SplineSet
309 1403 m 2
 701 1403 l 2
 830 1403 926 1307 926 1178 c 2
 926 976 l 2
 926 847 830 752 701 752 c 1
 830 752 926 656 926 527 c 2
 926 224 l 2
 926 95 830 0 701 0 c 2
 309 0 l 2
 180 0 84 95 84 224 c 2
 84 292 l 2
 84 326 112 348 157 348 c 2
 292 348 l 2
 337 348 365 326 365 292 c 2
 365 224 l 2
 365 196 382 180 410 180 c 2
 600 180 l 2
 628 180 645 196 645 224 c 2
 645 617 l 2
 645 645 628 662 600 662 c 2
 457 662 l 6
 412 662 384 684 384 718 c 6
 384 786 l 6
 384 820 412 842 457 842 c 6
 600 842 l 2
 628 842 645 859 645 887 c 2
 645 1178 l 2
 645 1206 628 1223 600 1223 c 2
 410 1223 l 2
 382 1223 365 1206 365 1178 c 2
 365 1111 l 2
 365 1077 337 1055 292 1055 c 2
 157 1055 l 2
 112 1055 84 1077 84 1111 c 2
 84 1178 l 2
 84 1307 180 1403 309 1403 c 2
EndSplineSet
Validated: 1
EndChar

StartChar: four
Encoding: 52 52 5
Width: 1009
VWidth: 2805
GlyphClass: 2
Flags: W
HStem: -6 21G<643 657 913 928> 662 208<365 645> 1383 20G<134.5 314.5 695.5 875.5>
VStem: 84 281<875.005 1399.5> 645 281<0.088623 662 870 1399.5>
LayerCount: 2
Fore
SplineSet
157 1403 m 2
 292 1403 l 2
 337 1403 365 1381 365 1347 c 2
 365 915 l 6
 365 887 382 870 410 870 c 6
 645 870 l 5
 645 1347 l 2
 645 1381 673 1403 718 1403 c 2
 853 1403 l 2
 898 1403 926 1381 926 1347 c 2
 926 56 l 2
 926 34 925 16 931 -6 c 1
 895 -3 842 0 786 0 c 0
 730 0 674 0 640 -6 c 1
 646 16 645 34 645 56 c 2
 645 662 l 1
 309 662 l 2
 180 662 84 758 84 887 c 2
 84 1347 l 2
 84 1381 112 1403 157 1403 c 2
EndSplineSet
Validated: 1
EndChar

StartChar: five
Encoding: 53 53 6
Width: 951
VWidth: 2805
GlyphClass: 2
Flags: W
HStem: 0 180<85.291 586> 645 197<365 586> 1223 180<365 865.709>
VStem: 84 281<842 1223> 586 281<182.972 640.785>
LayerCount: 2
Fore
SplineSet
84 1403 m 1
 794 1403 l 2
 839 1403 867 1381 867 1347 c 2
 867 1279 l 2
 867 1245 839 1223 794 1223 c 2
 365 1223 l 1
 365 842 l 1
 642 842 l 2
 771 842 867 746 867 617 c 2
 867 224 l 2
 867 95 771 0 642 0 c 2
 157 0 l 2
 112 0 84 22 84 56 c 2
 84 123 l 2
 84 157 112 180 157 180 c 2
 541 180 l 2
 569 180 586 196 586 224 c 2
 586 600 l 2
 586 628 569 645 541 645 c 2
 157 645 l 2
 112 645 84 667 84 701 c 2
 84 1403 l 1
EndSplineSet
Validated: 1
EndChar

StartChar: six
Encoding: 54 54 7
Width: 1009
VWidth: 2805
GlyphClass: 2
Flags: W
HStem: 0 180<365 645> 662 180<365 645> 1223 180<365 784.709>
VStem: 84 281<182.972 662 842 1219.06> 645 281<182.972 658.061>
LayerCount: 2
Fore
SplineSet
309 1403 m 2
 713 1403 l 2
 758 1403 786 1381 786 1347 c 2
 786 1279 l 2
 786 1245 758 1223 713 1223 c 2
 365 1223 l 1
 365 842 l 1
 701 842 l 2
 830 842 926 746 926 617 c 2
 926 224 l 2
 926 95 830 0 701 0 c 2
 309 0 l 2
 180 0 84 95 84 224 c 2
 84 1178 l 2
 84 1307 180 1403 309 1403 c 2
410 662 m 2
 382 662 365 645 365 617 c 2
 365 224 l 2
 365 196 382 180 410 180 c 2
 600 180 l 2
 628 180 645 196 645 224 c 2
 645 617 l 2
 645 645 628 662 600 662 c 2
 410 662 l 2
EndSplineSet
Validated: 1
EndChar

StartChar: seven
Encoding: 55 55 8
Width: 819
VWidth: 2805
GlyphClass: 2
Flags: W
HStem: -6 21G<452 466 723 738> 662 180<211.291 454> 1223 180<85.291 454>
VStem: 454 281<0.088623 662 842 1219.06>
LayerCount: 2
Fore
SplineSet
454 1223 m 6
 157 1223 l 6
 112 1223 84 1245 84 1279 c 6
 84 1347 l 2
 84 1381 112 1403 157 1403 c 2
 511 1403 l 2
 640 1403 735 1307 735 1178 c 2
 735 56 l 2
 735 34 735 16 741 -6 c 1
 705 -3 651 0 595 0 c 0
 539 0 483 0 449 -6 c 1
 455 16 454 34 454 56 c 2
 454 662 l 1
 283 662 l 2
 238 662 210 684 210 718 c 2
 210 786 l 2
 210 820 238 842 283 842 c 2
 454 842 l 1
 454 1223 l 6
EndSplineSet
Validated: 1
EndChar

StartChar: eight
Encoding: 56 56 9
Width: 1009
VWidth: 2805
GlyphClass: 2
Flags: W
HStem: 0 180<365 645> 662 180<365 645> 1223 180<365 645>
VStem: 84 281<182.972 659.311 844.028 1219.06> 645 281<182.972 659.311 844.028 1219.06>
LayerCount: 2
Fore
SplineSet
309 1403 m 2
 701 1403 l 2
 830 1403 926 1307 926 1178 c 2
 926 976 l 2
 926 847 830 752 701 752 c 1
 830 752 926 656 926 527 c 2
 926 224 l 2
 926 95 830 0 701 0 c 2
 309 0 l 2
 180 0 84 95 84 224 c 2
 84 527 l 2
 84 656 180 752 309 752 c 1
 180 752 84 847 84 976 c 2
 84 1178 l 2
 84 1307 180 1403 309 1403 c 2
410 1223 m 2
 382 1223 365 1206 365 1178 c 2
 365 887 l 2
 365 859 382 842 410 842 c 2
 600 842 l 2
 628 842 645 859 645 887 c 2
 645 1178 l 2
 645 1206 628 1223 600 1223 c 2
 410 1223 l 2
410 662 m 2
 382 662 365 645 365 617 c 2
 365 224 l 2
 365 196 382 180 410 180 c 2
 600 180 l 2
 628 180 645 196 645 224 c 2
 645 617 l 2
 645 645 628 662 600 662 c 2
 410 662 l 2
EndSplineSet
Validated: 1
EndChar

StartChar: nine
Encoding: 57 57 10
Width: 1009
VWidth: 2805
GlyphClass: 2
Flags: W
HStem: 0 205<365 645> 634 180<365.012 645> 1223 180<365.012 645>
VStem: 84 281<206.09 380.503 816.972 1219.06> 645 281<206.09 633.988 814 1219.06>
LayerCount: 2
Fore
SplineSet
309 1403 m 2
 701 1403 l 2
 830 1403 926 1307 926 1178 c 2
 926 224 l 2
 926 95 830 0 701 0 c 2
 309 0 l 2
 180 0 84 95 84 224 c 2
 84 328 l 2
 84 362 112 384 157 384 c 2
 292 384 l 2
 337 384 365 362 365 328 c 2
 365 250 l 6
 365 222 382 205 410 205 c 6
 600 205 l 6
 628 205 645 222 645 250 c 6
 645 589 l 2
 645 617 628 634 600 634 c 2
 309 634 l 2
 180 634 84 729 84 858 c 2
 84 1178 l 2
 84 1307 180 1403 309 1403 c 2
600 1223 m 2
 410 1223 l 2
 382 1223 365 1206 365 1178 c 2
 365 858 l 2
 365 830 382 814 410 814 c 2
 600 814 l 2
 628 814 645 830 645 858 c 2
 645 1178 l 2
 645 1206 628 1223 600 1223 c 2
EndSplineSet
Validated: 1
EndChar

StartChar: question
Encoding: 63 63 11
Width: 757
VWidth: 2805
GlyphClass: 2
Flags: W
HStem: 0 191<99.291 377.709> 1170 233<99.291 378.988>
VStem: 98 281<3.49673 187.503 345.497 640> 379 280<892 1169.99>
LayerCount: 2
Fore
SplineSet
171 1403 m 2xe0
 435 1403 l 2
 564 1403 659 1307 659 1178 c 2
 659 864 l 2xd0
 659 735 564 640 435 640 c 2
 379 640 l 1
 379 398 l 2
 379 364 351 342 306 342 c 2
 171 342 l 2
 126 342 98 364 98 398 c 2
 98 668 l 2xe0
 98 797 194 892 323 892 c 2
 379 892 l 1
 379 1125 l 2xd0
 379 1153 362 1170 334 1170 c 2
 171 1170 l 2
 126 1170 98 1192 98 1226 c 2
 98 1347 l 2
 98 1381 126 1403 171 1403 c 2xe0
171 191 m 2
 306 191 l 2
 351 191 379 169 379 135 c 2
 379 56 l 2
 379 22 351 0 306 0 c 2
 171 0 l 2
 126 0 98 22 98 56 c 2
 98 135 l 2xe0
 98 169 126 191 171 191 c 2
EndSplineSet
Validated: 1
EndChar

StartChar: A
Encoding: 65 65 12
Width: 1001
VWidth: 2805
GlyphClass: 2
Flags: W
HStem: -6 21G<68 82 338 353 629 643 899 914> 623 199<351.012 630.988> 1218 185<351.012 630.988>
VStem: 70 281<0.088623 623 822 1213.36> 631 281<0.088623 623 822 1213.36>
LayerCount: 2
Fore
SplineSet
295 1403 m 2
 687 1403 l 2
 816 1403 912 1307 912 1178 c 2
 912 56 l 2
 912 34 911 16 917 -6 c 1
 881 -3 828 0 772 0 c 0
 716 0 660 0 626 -6 c 1
 632 16 631 34 631 56 c 2
 631 623 l 1
 351 623 l 1
 351 56 l 2
 351 34 350 16 356 -6 c 1
 320 -3 266 0 210 0 c 0
 154 0 99 0 65 -6 c 1
 71 16 70 34 70 56 c 2
 70 1178 l 2
 70 1307 166 1403 295 1403 c 2
586 1218 m 2
 396 1218 l 2
 368 1218 351 1201 351 1173 c 2
 351 867 l 6
 351 839 368 822 396 822 c 6
 586 822 l 6
 614 822 631 839 631 867 c 6
 631 1173 l 2
 631 1201 614 1218 586 1218 c 2
EndSplineSet
Validated: 1
EndChar

StartChar: B
Encoding: 66 66 13
Width: 990
VWidth: 2805
GlyphClass: 2
Flags: W
HStem: 0 180<351 631> 651 202<351 631> 1223 180<351 631>
VStem: 70 281<180 651 853 1223> 631 281<182.972 650.368 857.499 1219.06>
LayerCount: 2
Fore
SplineSet
70 1403 m 1
 687 1403 l 2
 816 1403 912 1307 912 1178 c 2
 912 976 l 2
 912 847 816 752 687 752 c 1
 816 752 912 656 912 527 c 2
 912 224 l 2
 912 95 816 0 687 0 c 2
 70 0 l 1
 70 1403 l 1
396 1223 m 2
 368 1223 351 1206 351 1178 c 2
 351 853 l 1
 586 853 l 2
 614 853 631 870 631 898 c 2
 631 1178 l 2
 631 1206 614 1223 586 1223 c 2
 396 1223 l 2
351 651 m 5
 351 224 l 2
 351 196 368 180 396 180 c 2
 586 180 l 2
 614 180 631 196 631 224 c 2
 631 606 l 6
 631 634 614 651 586 651 c 6
 351 651 l 5
EndSplineSet
Validated: 1
EndChar

StartChar: C
Encoding: 67 67 14
Width: 908
VWidth: 2805
GlyphClass: 2
Flags: W
HStem: 0 180<351 837.709> 1223 180<351 837.709>
VStem: 70 281<182.972 1219.06>
LayerCount: 2
Fore
SplineSet
295 1403 m 2
 766 1403 l 2
 811 1403 839 1381 839 1347 c 2
 839 1279 l 2
 839 1245 811 1223 766 1223 c 2
 396 1223 l 2
 368 1223 351 1206 351 1178 c 2
 351 224 l 2
 351 196 368 180 396 180 c 2
 766 180 l 2
 811 180 839 157 839 123 c 2
 839 56 l 2
 839 22 811 0 766 0 c 2
 295 0 l 2
 166 0 70 95 70 224 c 2
 70 1178 l 2
 70 1307 166 1403 295 1403 c 2
EndSplineSet
Validated: 1
EndChar

StartChar: D
Encoding: 68 68 15
Width: 1032
VWidth: 2805
GlyphClass: 2
Flags: W
HStem: 0 180<351 673> 1223 180<351 673>
VStem: 70 281<180 1223> 673 281<182.972 1219.06>
LayerCount: 2
Fore
SplineSet
70 1403 m 1
 729 1403 l 2
 858 1403 954 1307 954 1178 c 2
 954 224 l 2
 954 95 858 0 729 0 c 2
 70 0 l 1
 70 1403 l 1
351 1223 m 1
 351 180 l 1
 628 180 l 2
 656 180 673 196 673 224 c 2
 673 1178 l 2
 673 1206 656 1223 628 1223 c 2
 351 1223 l 1
EndSplineSet
Validated: 1
EndChar

StartChar: E
Encoding: 69 69 16
Width: 819
VWidth: 2805
GlyphClass: 2
Flags: W
HStem: 0 180<351 747.709> 662 180<351 607.709> 1223 180<351 747.709>
VStem: 70 281<182.972 662 842 1219.06>
LayerCount: 2
Fore
SplineSet
676 180 m 2
 721 180 749 157 749 123 c 2
 749 56 l 2
 749 22 721 0 676 0 c 2
 295 0 l 2
 166 0 70 95 70 224 c 2
 70 1178 l 2
 70 1307 166 1403 295 1403 c 2
 676 1403 l 2
 721 1403 749 1381 749 1347 c 2
 749 1279 l 2
 749 1245 721 1223 676 1223 c 2
 351 1223 l 2
 351 842 l 1
 536 842 l 2
 581 842 609 820 609 786 c 2
 609 718 l 2
 609 684 581 662 536 662 c 2
 351 662 l 1
 351 180 l 2
 676 180 l 2
EndSplineSet
Validated: 1
EndChar

StartChar: F
Encoding: 70 70 17
Width: 791
VWidth: 2805
GlyphClass: 2
Flags: W
HStem: -6 21G<68 82 338 353> 662 180<351 615.709> 1223 180<351.012 755.752>
VStem: 70 281<0.088623 662 842 1219.06>
LayerCount: 2
Fore
SplineSet
295 1403 m 2
 685 1403 l 2
 730 1403 757 1381 757 1347 c 2
 757 1279 l 2
 757 1245 730 1223 685 1223 c 2
 396 1223 l 2
 368 1223 351 1206 351 1178 c 2
 351 842 l 1
 544 842 l 2
 589 842 617 820 617 786 c 2
 617 718 l 2
 617 684 589 662 544 662 c 2
 351 662 l 1
 351 56 l 2
 351 34 350 16 356 -6 c 1
 320 -3 266 0 210 0 c 0
 154 0 99 0 65 -6 c 1
 71 16 70 34 70 56 c 2
 70 1178 l 2
 70 1307 166 1403 295 1403 c 2
EndSplineSet
Validated: 1
EndChar

StartChar: G
Encoding: 71 71 18
Width: 979
VWidth: 2805
GlyphClass: 2
Flags: W
HStem: 0 180<351 631> 519 191<492.291 631> 1223 180<351 630.988>
VStem: 70 281<182.972 1219.06> 491 421<522.497 706.503> 631 281<182.972 519 1013.5 1219.06>
LayerCount: 2
Fore
SplineSet
295 1403 m 2xf4
 687 1403 l 2
 816 1403 912 1307 912 1178 c 2
 912 1066 l 2
 912 1032 884 1010 839 1010 c 2
 704 1010 l 2
 659 1010 631 1032 631 1066 c 2
 631 1178 l 2
 631 1206 614 1223 586 1223 c 2
 396 1223 l 2
 368 1223 351 1206 351 1178 c 2
 351 224 l 2
 351 196 368 180 396 180 c 2
 586 180 l 2
 614 180 631 196 631 224 c 2
 631 519 l 5xf4
 564 519 l 6
 519 519 491 541 491 575 c 6
 491 654 l 6xf8
 491 688 519 710 564 710 c 6
 912 710 l 5
 912 224 l 2
 912 95 816 0 687 0 c 2
 295 0 l 2
 166 0 70 95 70 224 c 2
 70 1178 l 2
 70 1307 166 1403 295 1403 c 2xf4
EndSplineSet
Validated: 1
EndChar

StartChar: H
Encoding: 72 72 19
Width: 1015
VWidth: 2805
GlyphClass: 2
Flags: W
HStem: -6 21G<68 82 338 353 648 662 919 934> 662 180<351.012 651> 1383 20G<120.5 300.5 701.5 880.5>
VStem: 70 281<0.088623 662 842 1399.09> 651 280<0.088623 662 842 1399.09>
LayerCount: 2
Fore
SplineSet
143 1403 m 2
 278 1403 l 2
 323 1403 351 1378 351 1344 c 2
 351 887 l 2
 351 859 368 842 396 842 c 2
 606 842 l 2
 634 842 651 859 651 887 c 2
 651 1344 l 2
 651 1378 679 1403 724 1403 c 2
 858 1403 l 2
 903 1403 931 1378 931 1344 c 2
 931 56 l 2
 931 34 931 16 937 -6 c 1
 901 -3 847 0 791 0 c 0
 735 0 679 0 645 -6 c 1
 651 16 651 34 651 56 c 2
 651 617 l 2
 651 645 634 662 606 662 c 2
 396 662 l 2
 368 662 351 645 351 617 c 2
 351 56 l 2
 351 34 350 16 356 -6 c 1
 320 -3 266 0 210 0 c 0
 154 0 99 0 65 -6 c 1
 71 16 70 34 70 56 c 2
 70 1344 l 2
 70 1378 98 1403 143 1403 c 2
EndSplineSet
Validated: 1
EndChar

StartChar: I
Encoding: 73 73 20
Width: 454
VWidth: 2805
GlyphClass: 2
Flags: W
HStem: -6 21G<84 98 355 370> 1383 20G<137.5 317.5>
VStem: 87 281<0.088623 1399.5>
LayerCount: 2
Fore
SplineSet
160 1403 m 2
 182 1403 l 1
 188 1403 l 1
 272 1403 l 1
 295 1403 l 2
 340 1403 368 1381 368 1347 c 2
 368 1330 l 1
 368 56 l 2
 368 34 367 16 373 -6 c 1
 337 -3 283 0 227 0 c 0
 171 0 115 0 81 -6 c 1
 87 16 87 34 87 56 c 2
 87 1319 l 1
 87 1324 l 1
 87 1347 l 2
 87 1381 115 1403 160 1403 c 2
EndSplineSet
Validated: 1
EndChar

StartChar: J
Encoding: 74 74 21
Width: 667
VWidth: 2805
GlyphClass: 2
Flags: W
HStem: 0 180<35.291 309> 1383 20G<359.5 538.5>
VStem: 309 280<182.972 1399.5>
LayerCount: 2
Fore
SplineSet
382 1403 m 2
 516 1403 l 2
 561 1403 589 1381 589 1347 c 2
 589 224 l 2
 589 95 494 0 365 0 c 2
 107 0 l 2
 62 0 34 22 34 56 c 2
 34 123 l 2
 34 157 62 180 107 180 c 2
 264 180 l 2
 292 180 309 196 309 224 c 2
 309 1347 l 2
 309 1381 337 1403 382 1403 c 2
EndSplineSet
Validated: 1
EndChar

StartChar: K
Encoding: 75 75 22
Width: 1001
VWidth: 2805
GlyphClass: 2
Flags: W
HStem: -6 21G<68 82 338 353 629 643 899 914> 637 202<351.012 630.988> 1383 20G<120.5 300.5 681.5 861.5>
VStem: 70 281<0.088623 637 839 1399.5> 631 281<0.088623 636.368 843.499 1399.5>
LayerCount: 2
Fore
SplineSet
143 1403 m 2
 278 1403 l 2
 323 1403 351 1381 351 1347 c 2
 351 884 l 6
 351 856 368 839 396 839 c 6
 586 839 l 6
 614 839 631 856 631 884 c 6
 631 1347 l 2
 631 1381 659 1403 704 1403 c 2
 839 1403 l 2
 884 1403 912 1381 912 1347 c 2
 912 962 l 2
 912 833 816 738 687 738 c 1
 816 738 912 642 912 513 c 2
 912 56 l 2
 912 34 911 16 917 -6 c 1
 881 -3 828 0 772 0 c 0
 716 0 660 0 626 -6 c 1
 632 16 631 34 631 56 c 2
 631 592 l 2
 631 620 614 637 586 637 c 2
 396 637 l 2
 368 637 351 620 351 592 c 2
 351 56 l 2
 351 34 350 16 356 -6 c 1
 320 -3 266 0 210 0 c 0
 154 0 99 0 65 -6 c 1
 71 16 70 34 70 56 c 2
 70 1347 l 2
 70 1381 98 1403 143 1403 c 2
EndSplineSet
Validated: 1
EndChar

StartChar: L
Encoding: 76 76 23
Width: 687
VWidth: 2805
GlyphClass: 2
Flags: W
HStem: 0 252<351 652.709> 1383 20G<120.5 300.5>
VStem: 70 281<252 1399.5>
LayerCount: 2
Fore
SplineSet
143 1403 m 2
 278 1403 l 2
 323 1403 351 1381 351 1347 c 2
 351 297 l 2
 351 269 368 252 396 252 c 2
 581 252 l 2
 626 252 654 230 654 196 c 2
 654 56 l 2
 654 22 626 0 581 0 c 2
 143 0 l 2
 98 0 70 22 70 56 c 2
 70 1347 l 2
 70 1381 98 1403 143 1403 c 2
EndSplineSet
Validated: 1
EndChar

StartChar: M
Encoding: 77 77 24
Width: 1500
VWidth: 2805
GlyphClass: 2
Flags: W
HStem: -6 21G<68 83 339 353 653.5 833.5 1134 1149 1405 1419> 1223 180<351.012 602.988 884.012 1135.99>
VStem: 70 281<0.088623 1223> 603 281<3.49674 1223> 1136 281<0.088623 1219.06>
CounterMasks: 1 38
LayerCount: 2
Fore
SplineSet
1192 1403 m 2
 1321 1403 1417 1307 1417 1178 c 2
 1417 56 l 2
 1417 34 1416 16 1422 -6 c 1
 1388 0 1332 0 1276 0 c 0
 1220 0 1167 -3 1131 -6 c 1
 1137 16 1136 34 1136 56 c 2
 1136 1178 l 2
 1136 1206 1119 1223 1091 1223 c 2
 929 1223 l 2
 901 1223 884 1206 884 1178 c 2
 884 56 l 2
 884 22 856 0 811 0 c 2
 676 0 l 2
 631 0 603 22 603 56 c 2
 603 1178 l 2
 603 1206 586 1223 558 1223 c 2
 396 1223 l 2
 368 1223 351 1206 351 1178 c 2
 351 56 l 2
 351 34 350 16 356 -6 c 1
 322 0 266 0 210 0 c 0
 154 0 101 -3 65 -6 c 1
 71 16 70 34 70 56 c 2
 70 1347 l 2
 70 1381 98 1403 143 1403 c 2
 1192 1403 l 2
EndSplineSet
Validated: 1
EndChar

StartChar: N
Encoding: 78 78 25
Width: 995
VWidth: 2805
GlyphClass: 2
Flags: W
HStem: -6 21G<68 82 338 353 629 643 899 914> 1223 180<351 630.988>
VStem: 70 281<0.088623 1223> 631 281<0.088623 1219.06>
LayerCount: 2
Fore
SplineSet
351 1223 m 2
 351 56 l 2
 351 34 350 16 356 -6 c 1
 320 -3 266 0 210 0 c 0
 154 0 99 0 65 -6 c 1
 71 16 70 34 70 56 c 2
 70 1347 l 2
 70 1381 98 1403 143 1403 c 2
 687 1403 l 2
 816 1403 912 1307 912 1178 c 2
 912 56 l 2
 912 34 911 16 917 -6 c 1
 881 -3 828 0 772 0 c 0
 716 0 660 0 626 -6 c 1
 632 16 631 34 631 56 c 2
 631 1178 l 2
 631 1206 614 1223 586 1223 c 2
 351 1223 l 2
EndSplineSet
Validated: 1
EndChar

StartChar: O
Encoding: 79 79 26
Width: 990
VWidth: 2805
GlyphClass: 2
Flags: W
HStem: 0 180<351 631> 1223 180<351 631>
VStem: 70 281<182.972 1219.06> 631 281<182.972 1219.06>
LayerCount: 2
Fore
SplineSet
295 1403 m 2
 687 1403 l 2
 816 1403 912 1307 912 1178 c 2
 912 224 l 2
 912 95 816 0 687 0 c 2
 295 0 l 2
 166 0 70 95 70 224 c 2
 70 1178 l 2
 70 1307 166 1403 295 1403 c 2
586 1223 m 2
 396 1223 l 2
 368 1223 351 1206 351 1178 c 2
 351 224 l 2
 351 196 368 180 396 180 c 2
 586 180 l 2
 614 180 631 196 631 224 c 2
 631 1178 l 2
 631 1206 614 1223 586 1223 c 2
EndSplineSet
Validated: 1
EndChar

StartChar: P
Encoding: 80 80 27
Width: 945
VWidth: 2805
GlyphClass: 2
Flags: W
HStem: -6 21G<68 82 338 353> 572 180<351.012 631> 1218 185<351.012 631>
VStem: 70 281<0.088623 572 752 1213.36> 631 281<755.939 1213.36>
LayerCount: 2
Fore
SplineSet
295 1403 m 2
 687 1403 l 2
 816 1403 912 1307 912 1178 c 2
 912 797 l 6
 912 668 816 572 687 572 c 6
 351 572 l 5
 351 56 l 2
 351 34 350 16 356 -6 c 1
 320 -3 266 0 210 0 c 0
 154 0 99 0 65 -6 c 1
 71 16 70 34 70 56 c 2
 70 1178 l 2
 70 1307 166 1403 295 1403 c 2
586 1218 m 2
 396 1218 l 2
 368 1218 351 1201 351 1173 c 2
 351 797 l 6
 351 769 368 752 396 752 c 6
 586 752 l 6
 614 752 631 769 631 797 c 6
 631 1173 l 2
 631 1201 614 1218 586 1218 c 2
EndSplineSet
Validated: 1
EndChar

StartChar: Q
Encoding: 81 81 28
Width: 979
VWidth: 2805
GlyphClass: 2
Flags: W
HStem: 0 180<351 497> 1223 180<351 631>
VStem: 70 281<182.972 1219.06> 626 286<382 1219.06>
LayerCount: 2
Fore
SplineSet
295 1403 m 2
 687 1403 l 2
 816 1403 912 1307 912 1178 c 2
 912 56 l 2
 912 22 884 0 839 0 c 2
 295 0 l 2
 166 0 70 95 70 224 c 2
 70 1178 l 2
 70 1307 166 1403 295 1403 c 2
586 1223 m 2
 396 1223 l 2
 368 1223 351 1206 351 1178 c 2
 351 224 l 2
 351 196 368 180 396 180 c 2
 497 180 l 1
 497 325 l 6
 497 359 525 382 570 382 c 6
 626 382 l 5
 631 1178 l 2
 631 1206 614 1223 586 1223 c 2
EndSplineSet
Validated: 1
EndChar

StartChar: R
Encoding: 82 82 29
Width: 990
VWidth: 2805
GlyphClass: 2
Flags: W
HStem: -6 21G<73 87 344 359 634 648 905 920> 662 180<356 637> 1218 185<356 637>
VStem: 76 280<0.088623 662 842 1218> 637 280<0.088623 659.311 844.028 1213.36>
LayerCount: 2
Fore
SplineSet
76 1403 m 1
 693 1403 l 2
 822 1403 917 1307 917 1178 c 2
 917 976 l 2
 917 847 822 752 693 752 c 1
 822 752 917 656 917 527 c 2
 917 56 l 2
 917 34 917 16 923 -6 c 1
 887 -3 833 0 777 0 c 0
 721 0 665 0 631 -6 c 1
 637 16 637 34 637 56 c 2
 637 617 l 2
 637 645 620 662 592 662 c 2
 356 662 l 1
 356 56 l 2
 356 34 356 16 362 -6 c 1
 326 -3 272 0 216 0 c 0
 160 0 104 0 70 -6 c 1
 76 16 76 34 76 56 c 2
 76 1403 l 1
401 1218 m 2
 373 1218 356 1201 356 1173 c 2
 356 887 l 2
 356 859 373 842 401 842 c 2
 592 842 l 2
 620 842 637 859 637 887 c 2
 637 1173 l 2
 637 1201 620 1218 592 1218 c 2
 401 1218 l 2
EndSplineSet
Validated: 1
EndChar

StartChar: S
Encoding: 83 83 30
Width: 869
VWidth: 2805
GlyphClass: 2
Flags: W
HStem: 0 191<71.291 519> 640 221<351 519> 1212 191<351 798.709>
VStem: 70 281<861 1207.6> 519 281<194.417 639.988>
LayerCount: 2
Fore
SplineSet
295 1403 m 0
 438 1403 584 1403 727 1403 c 0
 772 1403 800 1381 800 1347 c 0
 800 1325 800 1290 800 1268 c 0
 800 1234 772 1212 727 1212 c 0
 618 1212 505 1212 396 1212 c 0
 368 1212 351 1195 351 1167 c 0
 351 1069 351 1004 351 906 c 0
 351 878 368 861 396 861 c 0
 455 861 516 861 575 861 c 0
 704 861 800 766 800 637 c 0
 800 505 800 356 800 224 c 0
 800 95 704 0 575 0 c 0
 432 0 286 0 143 0 c 0
 98 0 70 22 70 56 c 0
 70 78 70 113 70 135 c 0
 70 169 98 191 143 191 c 0
 252 191 365 191 474 191 c 0
 502 191 519 208 519 236 c 0
 519 368 519 463 519 595 c 0
 519 623 502 640 474 640 c 0
 415 640 354 640 295 640 c 0
 166 640 70 735 70 864 c 0
 70 962 70 1080 70 1178 c 0
 70 1307 166 1403 295 1403 c 0
EndSplineSet
Validated: 1
EndChar

StartChar: T
Encoding: 84 84 31
Width: 951
VWidth: 2805
GlyphClass: 2
Flags: W
HStem: -6 21G<332.5 348 605 620> 1150 253<43.291 337 617 907.709>
VStem: 337 280<0.279785 1150>
LayerCount: 2
Fore
SplineSet
115 1403 m 2
 836 1403 l 2
 881 1403 909 1381 909 1347 c 2
 909 1206 l 6
 909 1172 881 1150 836 1150 c 6
 617 1150 l 5
 617 56 l 2
 617 34 617 16 623 -6 c 1
 587 -3 533 0 477 0 c 0
 421 0 365 0 331 -6 c 1
 334 5 337 17 337 28 c 2
 337 1150 l 5
 115 1150 l 6
 70 1150 42 1172 42 1206 c 6
 42 1347 l 2
 42 1381 70 1403 115 1403 c 2
EndSplineSet
Validated: 1
EndChar

StartChar: U
Encoding: 85 85 32
Width: 1038
VWidth: 2805
GlyphClass: 2
Flags: W
HStem: 0 180<351 673> 1383 20G<120.5 300.5 723.5 903.5>
VStem: 70 281<182.972 1399.5> 673 281<180 1399.5>
LayerCount: 2
Fore
SplineSet
143 1403 m 2
 278 1403 l 2
 323 1403 351 1381 351 1347 c 2
 351 224 l 2
 351 196 368 180 396 180 c 2
 628 180 l 2
 656 180 673 196 673 224 c 2
 673 1347 l 2
 673 1381 701 1403 746 1403 c 2
 881 1403 l 2
 926 1403 954 1381 954 1347 c 2
 954 56 l 2
 954 22 926 0 881 0 c 2
 295 0 l 2
 166 0 70 95 70 224 c 2
 70 1347 l 2
 70 1381 98 1403 143 1403 c 2
EndSplineSet
Validated: 1
EndChar

StartChar: V
Encoding: 86 86 33
Width: 1054
VWidth: 2805
GlyphClass: 2
Flags: W
HStem: 0 213<426 704> 1223 180<35.291 146>
VStem: 146 280<217.978 1219.06> 704 281<217.978 1314.66>
LayerCount: 2
Fore
SplineSet
107 1403 m 2
 202 1403 l 2
 331 1403 426 1307 426 1178 c 2
 426 258 l 6
 426 230 443 213 471 213 c 6
 659 213 l 6
 687 213 704 230 704 258 c 6
 704 1178 l 2
 704 1307 800 1403 929 1403 c 2
 985 1403 l 1
 985 224 l 2
 985 95 889 0 760 0 c 2
 370 0 l 2
 241 0 146 95 146 224 c 2
 146 1223 l 1
 107 1223 l 2
 62 1223 34 1245 34 1279 c 2
 34 1347 l 2
 34 1381 62 1403 107 1403 c 2
EndSplineSet
Validated: 1
EndChar

StartChar: W
Encoding: 87 87 34
Width: 1500
VWidth: 2805
GlyphClass: 2
Flags: W
HStem: 0 180<351 603 884 1136> 1383 20G<120.5 300.5 650.5 833.5 1186.5 1366.5>
VStem: 70 281<182.972 1399.5> 603 281<180 1399.5> 1136 281<182.972 1399.5>
CounterMasks: 1 38
LayerCount: 2
Fore
SplineSet
143 1403 m 2
 278 1403 l 2
 323 1403 351 1381 351 1347 c 2
 351 224 l 2
 351 196 368 180 396 180 c 2
 558 180 l 2
 586 180 603 196 603 224 c 2
 603 1347 l 2
 603 1381 628 1403 673 1403 c 2
 811 1403 l 2
 856 1403 884 1381 884 1347 c 2
 884 224 l 2
 884 196 901 180 929 180 c 2
 1091 180 l 2
 1119 180 1136 196 1136 224 c 2
 1136 1347 l 2
 1136 1381 1164 1403 1209 1403 c 2
 1344 1403 l 2
 1389 1403 1417 1381 1417 1347 c 2
 1417 224 l 2
 1417 95 1321 0 1192 0 c 2
 295 0 l 2
 166 0 70 95 70 224 c 2
 70 1347 l 2
 70 1381 98 1403 143 1403 c 2
EndSplineSet
Validated: 1
EndChar

StartChar: X
Encoding: 88 88 35
Width: 990
VWidth: 2805
GlyphClass: 2
Flags: W
HStem: -6 21G<71.5 87 344 360.5 632.5 648 905 921.5> 586 225<356.05 636.95>
VStem: 76 280<0.26001 581.305 811.9 1396.5> 637 280<0.26001 581.305 811.9 1396.5>
LayerCount: 2
Fore
SplineSet
149 1400 m 2
 283 1400 l 2
 328 1400 356 1378 356 1344 c 2
 356 858 l 6
 356 830 373 811 401 811 c 6
 592 811 l 6
 620 811 637 830 637 858 c 6
 637 1344 l 2
 637 1378 665 1400 710 1400 c 2
 844 1400 l 2
 889 1400 917 1378 917 1344 c 2
 917 926 l 6
 917 797 822 701 693 701 c 5
 822 701 917 606 917 477 c 6
 917 25 l 2
 917 17 920 5 923 -6 c 1
 887 -3 833 0 777 0 c 0
 721 0 665 0 631 -6 c 1
 634 5 637 17 637 25 c 2
 637 539 l 6
 637 567 620 586 592 586 c 6
 401 586 l 6
 373 586 356 567 356 539 c 6
 356 25 l 2
 356 17 359 5 362 -6 c 1
 326 -3 272 0 216 0 c 0
 160 0 104 0 70 -6 c 1
 73 5 76 17 76 25 c 2
 76 477 l 6
 76 606 171 701 300 701 c 5
 171 701 76 797 76 926 c 6
 76 1344 l 2
 76 1378 104 1400 149 1400 c 2
EndSplineSet
Validated: 1
EndChar

StartChar: Y
Encoding: 89 89 36
Width: 979
VWidth: 2805
GlyphClass: 2
Flags: W
HStem: 0 830<351.627 630.043> 1383 20G<120.5 300.5 681.5 861.5>
VStem: 70 281<831.872 1399.5> 351 280<0.431274 662> 631 281<831.872 1399.5>
LayerCount: 2
Fore
SplineSet
143 1403 m 2xe0
 278 1403 l 2
 323 1403 351 1381 351 1347 c 2
 351 875 l 6
 351 847 368 830 396 830 c 6
 586 830 l 6
 614 830 631 847 631 875 c 6
 631 1347 l 2
 631 1381 659 1403 704 1403 c 2
 839 1403 l 2
 884 1403 912 1381 912 1347 c 2
 912 884 l 2xe8
 912 755 816 662 687 662 c 2
 631 662 l 1
 631 56 l 2
 631 45 631 36 631 28 c 0
 631 17 634 5 637 -6 c 1
 601 -3 547 0 491 0 c 0
 435 0 379 0 345 -6 c 1
 348 8 351 20 351 34 c 2
 351 662 l 1xd0
 295 662 l 2
 166 662 70 755 70 884 c 2
 70 1347 l 2
 70 1381 98 1403 143 1403 c 2xe0
EndSplineSet
Validated: 1
EndChar

StartChar: Z
Encoding: 90 90 37
Width: 866
VWidth: 2805
GlyphClass: 2
Flags: W
HStem: 0 199<351 798.709> 648 199<351 519> 1204 199<71.291 519>
VStem: 70 281<199 646.774> 519 281<849.215 1204>
LayerCount: 2
Fore
SplineSet
143 1403 m 2
 727 1403 l 2
 772 1403 800 1381 800 1347 c 2
 800 873 l 2
 800 744 704 648 575 648 c 2
 351 648 l 1
 351 199 l 1
 727 199 l 2
 772 199 800 177 800 143 c 2
 800 56 l 2
 800 22 772 0 727 0 c 2
 143 0 l 2
 98 0 70 22 70 56 c 2
 70 623 l 6
 70 752 166 847 295 847 c 2
 519 847 l 1
 519 1204 l 1
 143 1204 l 2
 98 1204 70 1226 70 1260 c 2
 70 1347 l 2
 70 1381 98 1403 143 1403 c 2
EndSplineSet
Validated: 1
EndChar

StartChar: a
Encoding: 97 97 38
Width: 1012
VWidth: 2805
GlyphClass: 2
Flags: W
HStem: 0 180<351 634 888.999 997.369> 662 180<351 634>
VStem: 70 281<182.972 658.061> 634 253<180.001 662>
LayerCount: 2
Fore
SplineSet
295 0 m 0
 166 0 70 95 70 224 c 0
 70 355 70 486 70 617 c 0
 70 746 166 842 295 842 c 0
 476 842 633 842 814 842 c 0
 859 842 887 820 887 786 c 0
 887 264 l 2
 886.998 259.593 l 0
 886.998 226.08 887.915 182.872 931 180 c 0
 973 177 999 154 999 123 c 2
 999 56 l 2
 999 22 971 0 926 0 c 2
 295 0 l 0
634 662 m 1
 570 662 460 662 396 662 c 0
 368 662 351 645 351 617 c 0
 351 486 351 355 351 224 c 0
 351 196 368 180 396 180 c 0
 634 180 l 1
 634 662 l 1
EndSplineSet
Validated: 1
EndChar

StartChar: b
Encoding: 98 98 39
Width: 979
VWidth: 2805
GlyphClass: 2
Flags: W
HStem: 0 180<351 631> 662 180<351 631> 1203 20G<120.5 300.5>
VStem: 70 281<180 662 842 1219.5> 631 281<182.972 658.061>
LayerCount: 2
Fore
SplineSet
143 1223 m 2
 278 1223 l 2
 323 1223 351 1201 351 1167 c 2
 351 842 l 1
 687 842 l 2
 816 842 912 746 912 617 c 2
 912 224 l 2
 912 95 816 0 687 0 c 2
 143 0 l 2
 98 0 70 22 70 56 c 2
 70 1167 l 2
 70 1201 98 1223 143 1223 c 2
396 662 m 2
 368 662 351 645 351 617 c 2
 351 224 l 2
 351 196 368 180 396 180 c 2
 586 180 l 2
 614 180 631 196 631 224 c 2
 631 617 l 2
 631 645 614 662 586 662 c 2
 396 662 l 2
EndSplineSet
Validated: 1
EndChar

StartChar: c
Encoding: 99 99 40
Width: 796
VWidth: 2805
GlyphClass: 2
Flags: W
HStem: 0 180<351 725.709> 662 180<351 725.709>
VStem: 70 281<182.972 658.061>
LayerCount: 2
Fore
SplineSet
295 842 m 2
 654 842 l 2
 699 842 727 820 727 786 c 2
 727 718 l 2
 727 684 699 662 654 662 c 2
 396 662 l 2
 368 662 351 645 351 617 c 2
 351 224 l 2
 351 196 368 180 396 180 c 2
 654 180 l 2
 699 180 727 157 727 123 c 2
 727 56 l 2
 727 22 699 0 654 0 c 2
 295 0 l 2
 166 0 70 95 70 224 c 2
 70 617 l 2
 70 746 166 842 295 842 c 2
EndSplineSet
Validated: 1
EndChar

StartChar: d
Encoding: 100 100 41
Width: 979
VWidth: 2805
GlyphClass: 2
Flags: W
HStem: 0 180<351 631> 662 180<351 631> 1203 20G<681.5 861.5>
VStem: 70 281<182.972 658.061> 631 281<180 662 842 1219.5>
LayerCount: 2
Fore
SplineSet
839 1223 m 2
 884 1223 912 1201 912 1167 c 2
 912 56 l 2
 912 22 884 0 839 0 c 2
 295 0 l 2
 166 0 70 95 70 224 c 2
 70 617 l 2
 70 746 166 842 295 842 c 2
 631 842 l 1
 631 1167 l 2
 631 1201 659 1223 704 1223 c 2
 839 1223 l 2
586 662 m 2
 396 662 l 2
 368 662 351 645 351 617 c 2
 351 224 l 2
 351 196 368 180 396 180 c 2
 586 180 l 2
 614 180 631 196 631 224 c 2
 631 617 l 2
 631 645 614 662 586 662 c 2
EndSplineSet
Validated: 1
EndChar

StartChar: e
Encoding: 101 101 42
Width: 979
VWidth: 2805
GlyphClass: 2
Flags: W
HStem: 0 180<351 798.709> 323 168<351 631> 662 180<351 631>
VStem: 70 281<182.972 323 491 658.061> 631 281<491 658.061>
LayerCount: 2
Fore
SplineSet
295 842 m 2
 687 842 l 2
 816 842 912 746 912 617 c 2
 912 379 l 6
 912 345 884 323 839 323 c 6
 351 323 l 5
 351 224 l 2
 351 196 368 180 396 180 c 2
 727 180 l 2
 772 180 800 157 800 123 c 2
 800 56 l 2
 800 22 772 0 727 0 c 2
 295 0 l 2
 166 0 70 95 70 224 c 2
 70 617 l 2
 70 746 166 842 295 842 c 2
396 662 m 2
 368 662 351 645 351 617 c 2
 351 491 l 5
 631 491 l 5
 631 617 l 2
 631 645 614 662 586 662 c 2
 396 662 l 2
EndSplineSet
Validated: 1
EndChar

StartChar: f
Encoding: 102 102 43
Width: 746
VWidth: 2805
GlyphClass: 2
Flags: W
HStem: -6 21G<68 82 338 353> 662 180<351 629.709> 1044 179<351.012 741.752>
VStem: 70 281<0.088623 662 842 1040.03>
LayerCount: 2
Fore
SplineSet
295 1223 m 2
 671 1223 l 2
 716 1223 743 1201 743 1167 c 2
 743 1100 l 2
 743 1066 716 1044 671 1044 c 2
 396 1044 l 2
 368 1044 351 1027 351 999 c 2
 351 842 l 1
 558 842 l 2
 603 842 631 820 631 786 c 2
 631 718 l 2
 631 684 603 662 558 662 c 2
 351 662 l 1
 351 56 l 2
 351 34 350 16 356 -6 c 1
 320 -3 266 0 210 0 c 0
 154 0 99 0 65 -6 c 1
 71 16 70 34 70 56 c 2
 70 999 l 2
 70 1128 166 1223 295 1223 c 2
EndSplineSet
Validated: 1
EndChar

StartChar: g
Encoding: 103 103 44
Width: 990
VWidth: 2805
GlyphClass: 2
Flags: W
HStem: -404 191<183.291 631> 0 180<351 631> 662 180<351 631>
VStem: 70 281<182.972 658.061> 631 281<-209.583 0 180 662>
LayerCount: 2
Fore
SplineSet
295 842 m 2
 839 842 l 2
 884 842 912 820 912 786 c 2
 912 -180 l 2
 912 -309 816 -404 687 -404 c 2
 255 -404 l 2
 210 -404 182 -382 182 -348 c 2
 182 -269 l 2
 182 -235 210 -213 255 -213 c 2
 586 -213 l 2
 614 -213 631 -196 631 -168 c 2
 631 0 l 1
 295 0 l 2
 166 0 70 95 70 224 c 2
 70 617 l 2
 70 746 166 842 295 842 c 2
396 662 m 2
 368 662 351 645 351 617 c 2
 351 224 l 2
 351 196 368 180 396 180 c 2
 586 180 l 2
 614 180 631 196 631 224 c 2
 631 617 l 2
 631 645 614 662 586 662 c 2
 396 662 l 2
EndSplineSet
Validated: 1
EndChar

StartChar: h
Encoding: 104 104 45
Width: 979
VWidth: 2805
GlyphClass: 2
Flags: W
HStem: 0 1234<71.6162 349.043> 662 180<351.012 630.988>
VStem: 70 281<0.088623 662 842 1230.5> 631 281<0.088623 658.061>
LayerCount: 2
Fore
SplineSet
143 1234 m 2xb0
 278 1234 l 2xb0
 323 1234 351 1212 351 1178 c 2
 351 842 l 1
 687 842 l 2x70
 816 842 912 746 912 617 c 2
 912 56 l 2
 912 34 911 16 917 -6 c 1
 881 -3 828 0 772 0 c 0xb0
 716 0 660 0 626 -6 c 1
 632 16 631 34 631 56 c 2
 631 617 l 2
 631 645 614 662 586 662 c 2
 396 662 l 2x70
 368 662 351 645 351 617 c 2
 351 56 l 2
 351 34 350 16 356 -6 c 1
 320 -3 266 0 210 0 c 0
 154 0 99 0 65 -6 c 1
 71 16 70 34 70 56 c 2
 70 1178 l 2
 70 1212 98 1234 143 1234 c 2xb0
EndSplineSet
Validated: 1
EndChar

StartChar: i
Encoding: 105 105 46
Width: 460
VWidth: 2805
GlyphClass: 2
Flags: W
HStem: -6 21G<87 101 358 373> 822 20G<140.5 319.5> 940 191<91.291 368.709>
VStem: 90 280<0.088623 838.503 943.497 1127.36>
LayerCount: 2
Fore
SplineSet
163 1131 m 6
 297 1131 l 6
 342 1131 370 1108 370 1074 c 6
 370 996 l 6
 370 962 342 940 297 940 c 6
 163 940 l 6
 118 940 90 962 90 996 c 6
 90 1074 l 6
 90 1108 118 1131 163 1131 c 6
163 842 m 6
 297 842 l 6
 342 842 370 820 370 786 c 6
 370 56 l 6
 370 34 370 16 376 -6 c 5
 340 -3 286 0 230 0 c 4
 174 0 118 0 84 -6 c 5
 90 16 90 34 90 56 c 6
 90 786 l 6
 90 820 118 842 163 842 c 6
EndSplineSet
Validated: 1
EndChar

StartChar: j
Encoding: 106 106 47
Width: 524
VWidth: 2805
GlyphClass: 2
Flags: W
HStem: -334 180<35.291 146> 822 20G<196.5 375.5> 943 190<147.291 424.709>
VStem: 146 280<-150.061 838.503 946.497 1129.5>
LayerCount: 2
Fore
SplineSet
219 1133 m 0
 264 1133 308 1133 353 1133 c 0
 398 1133 426 1111 426 1077 c 0
 426 1052 426 1024 426 999 c 0
 426 965 398 943 353 943 c 0
 308 943 264 943 219 943 c 0
 174 943 146 965 146 999 c 0
 146 1024 146 1052 146 1077 c 0
 146 1111 174 1133 219 1133 c 0
219 842 m 0
 264 842 308 842 353 842 c 0
 398 842 426 820 426 786 c 0
 426 494 426 230 426 -109 c 4
 426 -238 331 -334 202 -334 c 4
 171 -334 138 -334 107 -334 c 4
 62 -334 34 -312 34 -278 c 4
 34 -256 34 -232 34 -210 c 4
 34 -176 62 -154 107 -154 c 4
 129 -154 146 -140 146 -109 c 4
 146 214 146 463 146 786 c 0
 146 820 174 842 219 842 c 0
EndSplineSet
Validated: 1
EndChar

StartChar: k
Encoding: 107 107 48
Width: 945
VWidth: 2805
GlyphClass: 2
Flags: W
HStem: 0 1077<71.6162 349.043> 0 449<654.391 790.295> 337 224<351.012 598>
VStem: 70 281<0.088623 337 561 1073.5> 598 280<0.088623 333.347 563.885 891.503>
LayerCount: 2
Fore
SplineSet
143 1077 m 2x98
 278 1077 l 2x98
 323 1077 351 1055 351 1021 c 2
 351 606 l 2
 351 578 368 561 396 561 c 2
 553 561 l 2x38
 581 561 598 578 598 606 c 2
 598 839 l 2
 598 873 626 895 671 895 c 2
 805 895 l 2
 850 895 878 873 878 839 c 2
 878 673 l 2
 878 544 783 449 654 449 c 1
 783 449 878 353 878 224 c 2
 878 56 l 2
 878 34 878 16 884 -6 c 1
 848 -3 794 0 738 0 c 0x58
 682 0 626 0 592 -6 c 1
 598 16 598 34 598 56 c 2
 598 292 l 2
 598 320 581 337 553 337 c 2
 396 337 l 2x38
 368 337 351 320 351 292 c 2
 351 56 l 2
 351 34 350 16 356 -6 c 1
 320 -3 266 0 210 0 c 0
 154 0 99 0 65 -6 c 1
 71 16 70 34 70 56 c 2
 70 1021 l 2
 70 1055 98 1077 143 1077 c 2x98
EndSplineSet
Validated: 1
EndChar

StartChar: l
Encoding: 108 108 49
Width: 541
VWidth: 2805
GlyphClass: 2
Flags: W
HStem: -34 180<367.089 475.709> 1203 20G<134.5 314.5>
VStem: 84 281<149.939 1219.5>
LayerCount: 2
Fore
SplineSet
365 230 m 2
 365 196 365 149 410 146 c 0
 452 143 477 121 477 90 c 2
 477 22 l 2
 477 -12 449 -34 404 -34 c 2
 309 -34 l 2
 180 -34 84 62 84 191 c 2
 84 1167 l 2
 84 1201 112 1223 157 1223 c 2
 292 1223 l 2
 337 1223 365 1201 365 1167 c 2
 365 230 l 2
EndSplineSet
Validated: 1
EndChar

StartChar: m
Encoding: 109 109 50
Width: 1447
VWidth: 2805
GlyphClass: 2
Flags: W
HStem: -6 21G<76 91 348 362 633.5 813.5 1086 1101 1358 1372> 662 180<359 583.988 864.012 1089>
VStem: 79 280<0.136414 662> 584 280<3.49674 662> 1089 280<0.088623 658.061>
CounterMasks: 1 38
LayerCount: 2
Fore
SplineSet
1145 842 m 2
 1274 842 1369 746 1369 617 c 2
 1369 56 l 2
 1369 34 1369 16 1375 -6 c 1
 1341 0 1285 0 1229 0 c 0
 1173 0 1119 -3 1083 -6 c 1
 1089 16 1089 34 1089 56 c 2
 1089 617 l 2
 1089 645 1072 662 1044 662 c 2
 909 662 l 2
 881 662 864 645 864 617 c 2
 864 56 l 2
 864 22 836 0 791 0 c 2
 656 0 l 2
 611 0 584 22 584 56 c 2
 584 617 l 2
 584 645 567 662 539 662 c 2
 404 662 l 2
 376 662 359 645 359 617 c 2
 359 56 l 2
 359 36 359 16 365 -6 c 1
 331 0 275 0 219 0 c 0
 163 0 109 -3 73 -6 c 1
 79 16 79 34 79 56 c 2
 79 786 l 2
 79 820 106 842 151 842 c 2
 1145 842 l 2
EndSplineSet
Validated: 1
EndChar

StartChar: n
Encoding: 110 110 51
Width: 979
VWidth: 2805
GlyphClass: 2
Flags: W
HStem: -6 21G<68 82 338 353 629 643 899 914> 662 180<351 630.988>
VStem: 70 281<0.088623 662> 631 281<0.088623 658.061>
LayerCount: 2
Fore
SplineSet
351 662 m 6
 351 56 l 2
 351 34 350 16 356 -6 c 1
 320 -3 266 0 210 0 c 0
 154 0 99 0 65 -6 c 1
 71 16 70 34 70 56 c 2
 70 786 l 2
 70 820 98 842 143 842 c 2
 687 842 l 2
 816 842 912 746 912 617 c 2
 912 56 l 2
 912 34 911 16 917 -6 c 1
 881 -3 828 0 772 0 c 0
 716 0 660 0 626 -6 c 1
 632 16 631 34 631 56 c 2
 631 617 l 2
 631 645 614 662 586 662 c 6
 351 662 l 6
EndSplineSet
Validated: 1
EndChar

StartChar: o
Encoding: 111 111 52
Width: 979
VWidth: 2805
GlyphClass: 2
Flags: W
HStem: 0 180<351 631> 662 180<351 631>
VStem: 70 281<182.972 658.061> 631 281<182.972 658.061>
LayerCount: 2
Fore
SplineSet
295 842 m 6
 687 842 l 6
 816 842 912 746 912 617 c 6
 912 224 l 6
 912 95 816 0 687 0 c 6
 295 0 l 6
 166 0 70 95 70 224 c 6
 70 617 l 6
 70 746 166 842 295 842 c 6
396 662 m 6
 368 662 351 645 351 617 c 6
 351 224 l 6
 351 196 368 180 396 180 c 6
 586 180 l 6
 614 180 631 196 631 224 c 6
 631 617 l 6
 631 645 614 662 586 662 c 6
 396 662 l 6
EndSplineSet
Validated: 1
EndChar

StartChar: p
Encoding: 112 112 53
Width: 979
VWidth: 2805
GlyphClass: 2
Flags: W
HStem: -382 21G<120.5 300.5> 0 180<351.012 631> 662 180<351.012 631>
VStem: 70 281<-378.364 0 180 662> 631 281<182.972 658.061>
LayerCount: 2
Fore
SplineSet
143 842 m 2
 687 842 l 2
 816 842 912 746 912 617 c 2
 912 224 l 2
 912 95 816 0 687 0 c 2
 351 0 l 1
 351 -325 l 2
 351 -359 323 -382 278 -382 c 2
 143 -382 l 2
 98 -382 70 -359 70 -325 c 2
 70 786 l 2
 70 820 98 842 143 842 c 2
396 662 m 2
 368 662 351 645 351 617 c 2
 351 224 l 2
 351 196 368 180 396 180 c 2
 586 180 l 2
 614 180 631 196 631 224 c 2
 631 617 l 2
 631 645 614 662 586 662 c 2
 396 662 l 2
EndSplineSet
Validated: 1
EndChar

StartChar: q
Encoding: 113 113 54
Width: 979
VWidth: 2805
GlyphClass: 2
Flags: W
HStem: -382 21G<681.5 861.5> 0 180<351 630.988> 662 180<351 630.988>
VStem: 70 281<182.972 658.061> 631 281<-378.364 0 180 662>
LayerCount: 2
Fore
SplineSet
839 842 m 2
 884 842 912 820 912 786 c 2
 912 -325 l 2
 912 -359 884 -382 839 -382 c 2
 704 -382 l 2
 659 -382 631 -359 631 -325 c 2
 631 0 l 1
 295 0 l 2
 166 0 70 95 70 224 c 2
 70 617 l 2
 70 746 166 842 295 842 c 2
 839 842 l 2
586 662 m 2
 396 662 l 2
 368 662 351 645 351 617 c 2
 351 224 l 2
 351 196 368 180 396 180 c 2
 586 180 l 2
 614 180 631 196 631 224 c 2
 631 617 l 2
 631 645 614 662 586 662 c 2
EndSplineSet
Validated: 1
EndChar

StartChar: r
Encoding: 114 114 55
Width: 662
VWidth: 2805
GlyphClass: 2
Flags: W
HStem: -6 21G<68 82 338 353> 662 180<351.012 629.709>
VStem: 70 281<0.088623 662>
LayerCount: 2
Fore
SplineSet
143 842 m 2
 558 842 l 2
 603 842 631 820 631 786 c 2
 631 718 l 2
 631 684 603 662 558 662 c 2
 396 662 l 2
 368 662 351 645 351 617 c 2
 351 56 l 2
 351 34 350 16 356 -6 c 1
 320 -3 266 0 210 0 c 0
 154 0 99 0 65 -6 c 1
 71 16 70 34 70 56 c 2
 70 786 l 2
 70 820 98 842 143 842 c 2
EndSplineSet
Validated: 1
EndChar

StartChar: s
Encoding: 115 115 56
Width: 866
VWidth: 2805
GlyphClass: 2
Flags: W
HStem: 0 180<71.291 519> 331 180<351 519> 662 180<351 798.709>
VStem: 70 281<511 658.061> 519 281<182.972 331>
CounterMasks: 1 e0
LayerCount: 2
Fore
SplineSet
295 842 m 6
 727 842 l 6
 772 842 800 820 800 786 c 6
 800 718 l 6
 800 684 772 662 727 662 c 6
 396 662 l 6
 368 662 351 645 351 617 c 6
 351 511 l 5
 727 511 l 6
 772 511 800 488 800 454 c 6
 800 224 l 6
 800 95 704 0 575 0 c 6
 143 0 l 6
 98 0 70 22 70 56 c 6
 70 123 l 6
 70 157 98 180 143 180 c 6
 474 180 l 6
 502 180 519 196 519 224 c 6
 519 331 l 5
 143 331 l 6
 98 331 70 359 70 393 c 6
 70 617 l 6
 70 746 166 842 295 842 c 6
EndSplineSet
Validated: 1
EndChar

StartChar: t
Encoding: 116 116 57
Width: 659
VWidth: 2805
GlyphClass: 2
Flags: W
HStem: -34 180<465.089 573.709> 662 180<15.291 182 463 628.991>
VStem: 182 281<149.939 662 842 1040.5>
LayerCount: 2
Fore
SplineSet
255 1044 m 2
 390 1044 l 2
 435 1044 463 1022 463 988 c 2
 463 842 l 1
 558 842 l 2
 603 842 631 817 631 783 c 2
 631 738 l 1
 631 715 l 2
 631 681 603 662 558 662 c 2
 463 662 l 1
 463 230 l 6
 463 196 463 149 508 146 c 4
 550 143 575 121 575 90 c 6
 575 22 l 6
 575 -12 547 -34 502 -34 c 6
 407 -34 l 6
 278 -34 182 62 182 191 c 2
 182 662 l 1
 87 662 l 2
 42 662 14 684 14 718 c 2
 14 786 l 2
 14 820 42 842 87 842 c 2
 182 842 l 1
 182 988 l 2
 182 1022 210 1044 255 1044 c 2
EndSplineSet
Validated: 1
EndChar

StartChar: u
Encoding: 117 117 58
Width: 987
VWidth: 2805
GlyphClass: 2
Flags: W
HStem: 0 180<351 631> 822 20G<120.5 300.5 681.5 861.5>
VStem: 70 281<182.972 838.503> 631 281<180 838.503>
LayerCount: 2
Fore
SplineSet
143 842 m 2
 278 842 l 2
 323 842 351 820 351 786 c 2
 351 224 l 2
 351 196 368 180 396 180 c 2
 586 180 l 2
 614 180 631 196 631 224 c 2
 631 786 l 2
 631 820 659 842 704 842 c 2
 839 842 l 2
 884 842 912 820 912 786 c 2
 912 56 l 2
 912 22 884 0 839 0 c 2
 295 0 l 2
 166 0 70 95 70 224 c 2
 70 786 l 2
 70 820 98 842 143 842 c 2
EndSplineSet
Validated: 1
EndChar

StartChar: v
Encoding: 118 118 59
Width: 979
VWidth: 2805
GlyphClass: 2
Flags: W
HStem: 0 196<426 628> 662 180<35.291 146>
VStem: 146 280<200.226 658.061> 628 281<200.226 753.656>
LayerCount: 2
Fore
SplineSet
107 842 m 2
 202 842 l 2
 331 842 426 746 426 617 c 2
 426 241 l 6
 426 213 443 196 471 196 c 6
 584 196 l 6
 612 196 628 213 628 241 c 6
 628 617 l 2
 628 746 724 842 853 842 c 2
 909 842 l 1
 909 224 l 2
 909 95 814 0 685 0 c 2
 370 0 l 2
 241 0 146 95 146 224 c 2
 146 662 l 1
 107 662 l 2
 62 662 34 684 34 718 c 2
 34 786 l 2
 34 820 62 842 107 842 c 2
EndSplineSet
Validated: 1
EndChar

StartChar: w
Encoding: 119 119 60
Width: 1447
VWidth: 2805
GlyphClass: 2
Flags: W
HStem: 0 180<359 584 864 1089> 822 20G<128.5 308.5 633.5 813.5 1138.5 1318.5>
VStem: 79 280<182.972 838.503> 584 280<180 838.503> 1089 280<182.972 838.503>
CounterMasks: 1 38
LayerCount: 2
Fore
SplineSet
151 842 m 2
 286 842 l 2
 331 842 359 820 359 786 c 2
 359 224 l 2
 359 196 376 180 404 180 c 2
 539 180 l 2
 567 180 584 196 584 224 c 2
 584 786 l 2
 584 820 611 842 656 842 c 2
 791 842 l 2
 836 842 864 820 864 786 c 2
 864 224 l 2
 864 196 881 180 909 180 c 2
 1044 180 l 2
 1072 180 1089 196 1089 224 c 2
 1089 786 l 2
 1089 820 1116 842 1161 842 c 2
 1296 842 l 2
 1341 842 1369 820 1369 786 c 2
 1369 224 l 2
 1369 95 1274 0 1145 0 c 2
 303 0 l 2
 174 0 79 95 79 224 c 2
 79 786 l 2
 79 820 106 842 151 842 c 2
EndSplineSet
Validated: 1
EndChar

StartChar: x
Encoding: 120 120 61
Width: 979
VWidth: 2805
GlyphClass: 2
Flags: W
HStem: 0 421<158.403 292.836 688.391 823.656> 309 224<351.012 630.988> 421 421<158.344 294.057 687.943 823.656>
VStem: 70 281<0.088623 305.347 535.885 838.503> 631 281<0.088623 305.347 535.885 838.503>
LayerCount: 2
Fore
SplineSet
143 842 m 2x38
 278 842 l 2x38
 323 842 351 820 351 786 c 2
 351 578 l 2
 351 550 368 533 396 533 c 2
 586 533 l 2x58
 614 533 631 550 631 578 c 2
 631 786 l 2
 631 820 659 842 704 842 c 2
 839 842 l 2
 884 842 912 820 912 786 c 2
 912 645 l 2
 912 516 816 421 687 421 c 1x38
 816 421 912 325 912 196 c 2
 912 56 l 2
 912 34 911 16 917 -6 c 1
 881 -3 828 0 772 0 c 0x98
 716 0 660 0 626 -6 c 1
 632 16 631 34 631 56 c 2
 631 264 l 2
 631 292 614 309 586 309 c 2
 396 309 l 2x58
 368 309 351 292 351 264 c 2
 351 56 l 2
 351 34 350 16 356 -6 c 1
 320 -3 266 0 210 0 c 0x98
 154 0 99 0 65 -6 c 1
 71 16 70 34 70 56 c 2
 70 196 l 2
 70 325 166 421 295 421 c 1
 166 421 70 516 70 645 c 2
 70 786 l 2
 70 820 98 842 143 842 c 2x38
EndSplineSet
Validated: 1
EndChar

StartChar: y
Encoding: 121 121 62
Width: 987
VWidth: 2805
GlyphClass: 2
Flags: W
HStem: -393 169<183.291 631> 0 180<351 631> 822 20G<120.5 300.5 681.5 861.5>
VStem: 70 281<182.972 838.503> 631 281<-220.289 0 180 838.503>
LayerCount: 2
Fore
SplineSet
143 842 m 2
 278 842 l 2
 323 842 351 820 351 786 c 2
 351 224 l 2
 351 196 368 180 396 180 c 2
 586 180 l 2
 614 180 631 196 631 224 c 2
 631 786 l 2
 631 820 659 842 704 842 c 2
 839 842 l 2
 884 842 912 820 912 786 c 2
 912 79 l 1
 912 -168 l 2
 912 -297 816 -393 687 -393 c 2
 255 -393 l 2
 210 -393 182 -371 182 -337 c 2
 182 -281 l 2
 182 -247 210 -224 255 -224 c 2
 586 -224 l 2
 614 -224 631 -208 631 -180 c 2
 631 0 l 1
 295 0 l 2
 166 0 70 95 70 224 c 2
 70 786 l 2
 70 820 98 842 143 842 c 2
EndSplineSet
Validated: 1
EndChar

StartChar: z
Encoding: 122 122 63
Width: 866
VWidth: 2805
GlyphClass: 2
Flags: W
HStem: 0 180<323 798.709> 334 179<323 547> 662 180<71.291 547>
VStem: 70 253<180 330.028> 547 253<516.972 662>
LayerCount: 2
Fore
SplineSet
143 842 m 2
 727 842 l 2
 772 842 800 820 800 786 c 2
 800 558 l 6
 800 429 704 334 575 334 c 6
 323 334 l 5
 323 180 l 1
 727 180 l 2
 772 180 800 157 800 123 c 2
 800 56 l 2
 800 22 772 0 727 0 c 2
 143 0 l 2
 98 0 70 22 70 56 c 2
 70 289 l 2
 70 418 166 513 295 513 c 2
 547 513 l 1
 547 662 l 1
 143 662 l 2
 98 662 70 684 70 718 c 2
 70 786 l 2
 70 820 98 842 143 842 c 2
EndSplineSet
Validated: 1
EndChar

StartChar: adieresis
Encoding: 228 228 64
Width: 1012
VWidth: 2805
GlyphClass: 2
Flags: W
HStem: 0 180<351 634 888.999 997.369> 662 180<351 634> 940 191<71.291 349.709 607.291 885.709>
VStem: 70 281<182.972 658.061 943.497 1127.36> 606 281<943.497 1127.36> 634 253<180.001 662>
LayerCount: 2
Fore
SplineSet
143 1131 m 2xf0
 278 1131 l 2
 323 1131 351 1108 351 1074 c 2
 351 996 l 2
 351 962 323 940 278 940 c 2
 143 940 l 2
 98 940 70 962 70 996 c 2
 70 1074 l 2
 70 1108 98 1131 143 1131 c 2xf0
679 1131 m 2
 814 1131 l 2
 859 1131 887 1108 887 1074 c 2
 887 996 l 2
 887 962 859 940 814 940 c 2
 679 940 l 2
 634 940 606 962 606 996 c 2
 606 1074 l 2xf8
 606 1108 634 1131 679 1131 c 2
EndSplineSet
Refer: 38 97 N 1 0 0 1 0 0 2
Validated: 1
EndChar

StartChar: odieresis
Encoding: 246 246 65
Width: 979
VWidth: 2805
GlyphClass: 2
Flags: W
HStem: 0 180<351 631> 662 180<351 631> 940 191<71.291 349.709 632.291 910.709>
VStem: 70 281<182.972 658.061 943.497 1127.36> 631 281<182.972 658.061 943.497 1127.36>
LayerCount: 2
Fore
SplineSet
143 1131 m 2
 278 1131 l 2
 323 1131 351 1108 351 1074 c 2
 351 996 l 2
 351 962 323 940 278 940 c 2
 143 940 l 2
 98 940 70 962 70 996 c 2
 70 1074 l 2
 70 1108 98 1131 143 1131 c 2
704 1131 m 2
 839 1131 l 2
 884 1131 912 1108 912 1074 c 2
 912 996 l 2
 912 962 884 940 839 940 c 2
 704 940 l 2
 659 940 631 962 631 996 c 2
 631 1074 l 2
 631 1108 659 1131 704 1131 c 2
EndSplineSet
Refer: 52 111 S 1 0 0 1 0 0 2
Validated: 1
EndChar

StartChar: udieresis
Encoding: 252 252 66
Width: 987
VWidth: 2805
GlyphClass: 2
Flags: W
HStem: 0 180<351 631> 822 20<120.5 300.5 681.5 861.5> 940 191<71.291 349.709 632.291 910.709>
VStem: 70 281<182.972 838.503 943.497 1127.36> 631 281<180 838.503 943.497 1127.36>
LayerCount: 2
Fore
SplineSet
143 1131 m 2
 278 1131 l 2
 323 1131 351 1108 351 1074 c 2
 351 996 l 2
 351 962 323 940 278 940 c 2
 143 940 l 2
 98 940 70 962 70 996 c 2
 70 1074 l 2
 70 1108 98 1131 143 1131 c 2
704 1131 m 2
 839 1131 l 2
 884 1131 912 1108 912 1074 c 2
 912 996 l 2
 912 962 884 940 839 940 c 2
 704 940 l 2
 659 940 631 962 631 996 c 2
 631 1074 l 2
 631 1108 659 1131 704 1131 c 2
EndSplineSet
Refer: 58 117 S 1 0 0 1 0 0 2
Validated: 1
EndChar

StartChar: comma
Encoding: 44 44 68
Width: 392
VWidth: 0
Flags: W
HStem: -168 392<71.291 234.656>
VStem: 70 253<-80.2949 220.503>
LayerCount: 2
Fore
SplineSet
250 224 m 4
 295 224 323 202 323 168 c 4
 323 131 323 93 323 56 c 4
 323 -73 227 -168 98 -168 c 6
 70 -168 l 5
 70 -56 70 56 70 168 c 4
 70 202 98 224 143 224 c 4
 179 224 214 224 250 224 c 4
EndSplineSet
Validated: 1
EndChar

StartChar: period
Encoding: 46 46 69
Width: 392
VWidth: 0
Flags: W
HStem: 0 219<71.291 321.709>
VStem: 70 253<3.49674 215.503>
LayerCount: 2
Fore
SplineSet
143 219 m 4
 179 219 214 219 250 219 c 4
 295 219 323 197 323 163 c 4
 323 127 323 92 323 56 c 4
 323 22 295 0 250 0 c 4
 214 0 179 0 143 0 c 4
 98 0 70 22 70 56 c 4
 70 92 70 127 70 163 c 4
 70 197 98 219 143 219 c 4
EndSplineSet
Validated: 1
EndChar

StartChar: zero
Encoding: 48 48 70
Width: 1009
VWidth: 2805
Flags: W
HStem: 0 180<365 645> 356 180<365 645> 1223 180<365 645>
VStem: 84 281<182.972 356 536 1219.06> 645 281<182.972 356 536 1219.06>
LayerCount: 2
Fore
SplineSet
309 1403 m 0
 440 1403 570 1403 701 1403 c 0
 830 1403 926 1307 926 1178 c 2
 926 224 l 2
 926 95 830 0 701 0 c 0
 570 0 440 0 309 0 c 0
 180 0 84 95 84 224 c 2
 84 1178 l 2
 84 1307 180 1403 309 1403 c 0
410 1223 m 0
 382 1223 365 1206 365 1178 c 0
 365 1081 365 678 365 581 c 0
 365 553 382 536 410 536 c 0
 474 536 536 536 600 536 c 0
 628 536 645 553 645 581 c 0
 645 678 645 1081 645 1178 c 0
 645 1206 628 1223 600 1223 c 0
 536 1223 474 1223 410 1223 c 0
410 356 m 0
 382 356 365 339 365 311 c 0
 365 180 365 355 365 224 c 0
 365 196 382 180 410 180 c 0
 474 180 536 180 600 180 c 0
 628 180 645 196 645 224 c 0
 645 340 645 176 645 311 c 0
 645 339 628 356 600 356 c 0
 536 356 474 356 410 356 c 0
EndSplineSet
Validated: 1
EndChar

StartChar: germandbls
Encoding: 223 223 71
Width: 970
VWidth: 2805
Flags: W
HStem: 0 180<416.291 612> 581 179<416.291 612> 1044 179<359.012 612>
VStem: 79 280<-330.503 1040.03> 612 280<182.972 578.311 763.028 1040.03>
LayerCount: 2
Fore
SplineSet
488 0 m 2
 443 0 415 22 415 56 c 2
 415 123 l 2
 415 157 443 180 488 180 c 2
 567 180 l 2
 595 180 612 196 612 224 c 2
 612 536 l 2
 612 564 595 581 567 581 c 2
 488 581 l 2
 443 581 415 603 415 637 c 2
 415 704 l 2
 415 738 443 760 488 760 c 2
 567 760 l 2
 595 760 612 777 612 805 c 2
 612 999 l 2
 612 1027 595 1044 567 1044 c 2
 404 1044 l 2
 376 1044 359 1027 359 999 c 2
 359 -278 l 2
 359 -312 331 -334 286 -334 c 2
 151 -334 l 2
 106 -334 79 -312 79 -278 c 2
 79 999 l 2
 79 1128 174 1223 303 1223 c 2
 668 1223 l 2
 797 1223 892 1128 892 999 c 2
 892 895 l 2
 892 766 797 671 668 671 c 1
 797 671 892 575 892 446 c 2
 892 224 l 2
 892 95 797 0 668 0 c 2
 488 0 l 2
EndSplineSet
Validated: 1
EndChar

StartChar: hyphen
Encoding: 45 45 72
Width: 524
VWidth: 2805
Flags: W
HStem: 379 191<23.291 500.709>
VStem: 22 480<382.497 566.364>
LayerCount: 2
Fore
SplineSet
95 570 m 2
 429 570 l 2
 474 570 502 547 502 513 c 2
 502 435 l 2
 502 401 474 379 429 379 c 2
 95 379 l 2
 50 379 22 401 22 435 c 2
 22 513 l 2
 22 547 50 570 95 570 c 2
EndSplineSet
Validated: 1
EndChar

StartChar: quotedbl
Encoding: 34 34 73
Width: 726
VWidth: 0
Flags: W
HStem: 1055 393<71.291 234.656 405.291 568.295>
VStem: 70 253<1142.71 1444.5> 404 252<1142.71 1444.5>
LayerCount: 2
Fore
SplineSet
584 1448 m 4
 629 1448 656 1426 656 1392 c 4
 656 1355 656 1316 656 1279 c 4
 656 1150 561 1055 432 1055 c 6
 404 1055 l 5
 404 1167 404 1280 404 1392 c 4
 404 1426 432 1448 477 1448 c 4
 513 1448 548 1448 584 1448 c 4
250 1448 m 4
 295 1448 323 1426 323 1392 c 4
 323 1355 323 1316 323 1279 c 4
 323 1150 227 1055 98 1055 c 6
 70 1055 l 5
 70 1167 70 1280 70 1392 c 4
 70 1426 98 1448 143 1448 c 4
 179 1448 214 1448 250 1448 c 4
EndSplineSet
Validated: 1
EndChar

StartChar: quotesingle
Encoding: 39 39 74
Width: 392
VWidth: 0
Flags: W
HStem: 1013 393<71.291 234.656>
VStem: 70 253<1100.71 1402.36>
LayerCount: 2
Fore
SplineSet
250 1406 m 4
 295 1406 323 1383 323 1349 c 4
 323 1312 323 1274 323 1237 c 4
 323 1108 227 1013 98 1013 c 6
 70 1013 l 5
 70 1125 70 1237 70 1349 c 4
 70 1383 98 1406 143 1406 c 4
 179 1406 214 1406 250 1406 c 4
EndSplineSet
Validated: 1
EndChar

StartChar: plus
Encoding: 43 43 75
Width: 841
VWidth: 2805
Flags: W
HStem: 387 191<71.291 325 516 770.709>
VStem: 325 191<133.291 387 578 831.709>
LayerCount: 2
Fore
SplineSet
516 387 m 5
 516 205 l 6
 516 160 494 132 460 132 c 6
 382 132 l 6
 348 132 325 160 325 205 c 6
 325 387 l 5
 143 387 l 6
 98 387 70 409 70 443 c 6
 70 522 l 6
 70 556 98 578 143 578 c 6
 325 578 l 5
 325 760 l 6
 325 805 348 833 382 833 c 6
 460 833 l 6
 494 833 516 805 516 760 c 6
 516 578 l 5
 699 578 l 6
 744 578 772 556 772 522 c 6
 772 443 l 6
 772 409 744 387 699 387 c 6
 516 387 l 5
EndSplineSet
Validated: 1
EndChar

StartChar: grave
Encoding: 96 96 76
Width: 392
VWidth: 0
Flags: W
HStem: 979 393<158.344 321.709>
VStem: 70 253<1067.34 1368.5>
LayerCount: 2
Fore
SplineSet
143 1372 m 4
 179 1372 214 1372 250 1372 c 4
 295 1372 323 1350 323 1316 c 4
 323 1204 323 1091 323 979 c 5
 295 979 l 6
 166 979 70 1075 70 1204 c 4
 70 1241 70 1279 70 1316 c 4
 70 1350 98 1372 143 1372 c 4
EndSplineSet
Validated: 1
EndChar

StartChar: bracketleft
Encoding: 91 91 77
Width: 594
VWidth: 2805
Flags: W
HStem: 0 180<351 523.709> 1223 180<351 523.709>
VStem: 70 281<182.972 1219.06>
LayerCount: 2
Fore
SplineSet
295 1403 m 6
 452 1403 l 6
 497 1403 525 1381 525 1347 c 6
 525 1279 l 6
 525 1245 497 1223 452 1223 c 6
 396 1223 l 6
 368 1223 351 1206 351 1178 c 6
 351 224 l 6
 351 196 368 180 396 180 c 6
 452 180 l 6
 497 180 525 157 525 123 c 6
 525 56 l 6
 525 22 497 0 452 0 c 6
 295 0 l 6
 166 0 70 95 70 224 c 6
 70 1178 l 6
 70 1307 166 1403 295 1403 c 6
EndSplineSet
Validated: 1
EndChar

StartChar: bracketright
Encoding: 93 93 78
Width: 594
VWidth: 2805
Flags: W
HStem: 0 180<71.291 244> 1223 180<71.291 244>
VStem: 244 281<182.972 1219.06>
LayerCount: 2
Fore
SplineSet
300 1403 m 6
 429 1403 525 1307 525 1178 c 6
 525 224 l 6
 525 95 429 0 300 0 c 6
 143 0 l 6
 98 0 70 22 70 56 c 6
 70 123 l 6
 70 157 98 180 143 180 c 6
 199 180 l 6
 227 180 244 196 244 224 c 6
 244 1178 l 6
 244 1206 227 1223 199 1223 c 6
 143 1223 l 6
 98 1223 70 1245 70 1279 c 6
 70 1347 l 6
 70 1381 98 1403 143 1403 c 6
 300 1403 l 6
EndSplineSet
Validated: 1
EndChar

StartChar: equal
Encoding: 61 61 79
Width: 819
VWidth: 2805
Flags: W
HStem: 309 190<71.291 747.709> 682 191<71.291 747.709>
VStem: 70 679<312.497 495.503 685.497 869.364>
LayerCount: 2
Fore
SplineSet
143 873 m 6
 676 873 l 6
 721 873 749 850 749 816 c 6
 749 738 l 6
 749 704 721 682 676 682 c 6
 143 682 l 6
 98 682 70 704 70 738 c 6
 70 816 l 6
 70 850 98 873 143 873 c 6
143 499 m 6
 676 499 l 6
 721 499 749 477 749 443 c 6
 749 365 l 6
 749 331 721 309 676 309 c 6
 143 309 l 6
 98 309 70 331 70 365 c 6
 70 443 l 6
 70 477 98 499 143 499 c 6
EndSplineSet
Validated: 1
EndChar

StartChar: semicolon
Encoding: 59 59 80
Width: 392
VWidth: 0
Flags: W
HStem: 480 219<71.291 321.709>
VStem: 70 253<-80.2949 220.503 483.497 695.364>
LayerCount: 2
Fore
SplineSet
143 699 m 4
 179 699 214 699 250 699 c 4
 295 699 323 676 323 642 c 4
 323 606 323 572 323 536 c 4
 323 502 295 480 250 480 c 4
 214 480 179 480 143 480 c 4
 98 480 70 502 70 536 c 4
 70 572 70 606 70 642 c 4
 70 676 98 699 143 699 c 4
250 224 m 0
 295 224 323 202 323 168 c 0
 323 131 323 93 323 56 c 0
 323 -73 227 -168 98 -168 c 2
 70 -168 l 1
 70 -56 70 56 70 168 c 0
 70 202 98 224 143 224 c 0
 179 224 214 224 250 224 c 0
EndSplineSet
Validated: 1
EndChar

StartChar: colon
Encoding: 58 58 81
Width: 392
VWidth: 0
Flags: W
HStem: 0 219<71.291 321.709> 480 219<71.291 321.709>
VStem: 70 253<3.49674 215.503 483.497 695.364>
LayerCount: 2
Fore
SplineSet
143 219 m 4
 179 219 214 219 250 219 c 4
 295 219 323 197 323 163 c 4
 323 127 323 92 323 56 c 4
 323 22 295 0 250 0 c 4
 214 0 179 0 143 0 c 4
 98 0 70 22 70 56 c 4
 70 92 70 127 70 163 c 4
 70 197 98 219 143 219 c 4
143 699 m 4
 179 699 214 699 250 699 c 4
 295 699 323 676 323 642 c 4
 323 606 323 572 323 536 c 4
 323 502 295 480 250 480 c 4
 214 480 179 480 143 480 c 4
 98 480 70 502 70 536 c 4
 70 572 70 606 70 642 c 4
 70 676 98 699 143 699 c 4
EndSplineSet
Validated: 1
EndChar

StartChar: slash
Encoding: 47 47 82
Width: 580
VWidth: 2805
Flags: W
HStem: 1383 20G<316.5 460.5>
VStem: 70 244<-49.0312 100.805> 267 244<1249.19 1399.5>
LayerCount: 2
Fore
SplineSet
339 1403 m 2xa0
 438 1403 l 2
 483 1403 511 1381 511 1347 c 2xa0
 314 3 l 2
 308 -31 286 -53 241 -53 c 2
 143 -53 l 2
 101 -53 70 -34 70 -4 c 0
 70 -2 70 1 70 3 c 2xc0
 267 1347 l 2
 267 1381 294 1403 339 1403 c 2xa0
EndSplineSet
Validated: 1
EndChar

StartChar: bar
Encoding: 124 124 83
Width: 426
VWidth: 2805
Flags: W
VStem: 70 281<-44.5033 1452.5>
LayerCount: 2
Fore
SplineSet
143 1456 m 2
 278 1456 l 2
 323 1456 351 1434 351 1400 c 2
 351 8 l 2
 351 -26 323 -48 278 -48 c 2
 143 -48 l 2
 98 -48 70 -26 70 8 c 2
 70 1400 l 2
 70 1434 98 1456 143 1456 c 2
EndSplineSet
Validated: 1
EndChar

StartChar: backslash
Encoding: 92 92 84
Width: 706
VWidth: 2805
Flags: W
HStem: 1383 20G<122.5 263.5>
LayerCount: 2
Fore
SplineSet
143 1403 m 2
 241 1403 l 2
 286 1403 306 1381 314 1347 c 2
 665 3 l 2
 665 -31 637 -53 592 -53 c 2
 494 -53 l 2
 449 -53 421 -31 421 3 c 2
 70 1347 l 2
 69 1350 69 1353 69 1356 c 0
 69 1384 102 1403 143 1403 c 2
EndSplineSet
Validated: 1
EndChar

StartChar: underscore
Encoding: 95 95 85
Width: 934
VWidth: 0
Flags: W
HStem: 0 191<71.291 862.709>
LayerCount: 2
Fore
SplineSet
143 191 m 0
 179 191 755 191 791 191 c 0
 836 191 864 169 864 135 c 0
 864 99 864 92 864 56 c 0
 864 22 836 0 791 0 c 0
 755 0 179 0 143 0 c 0
 98 0 70 22 70 56 c 0
 70 92 70 99 70 135 c 0
 70 169 98 191 143 191 c 0
EndSplineSet
Validated: 1
EndChar

StartChar: asciicircum
Encoding: 94 94 86
Width: 692
VWidth: 2805
Flags: W
HStem: 887 426
VStem: 56 583<981 1065.5>
LayerCount: 2
Fore
SplineSet
612 1049 m 6
 630 1031 639 1012 639 994 c 4
 639 981 634 969 623 959 c 6
 567 903 l 6
 557 892 545 887 532 887 c 4
 514 887 495 897 477 915 c 6
 348 1044 l 5
 219 915 l 6
 200 897 180 887 162 887 c 4
 149 887 137 892 126 903 c 6
 70 959 l 6
 60 969 56 981 56 994 c 4
 56 1012 65 1031 84 1049 c 6
 348 1313 l 5
 612 1049 l 6
EndSplineSet
Validated: 1
EndChar

StartChar: less
Encoding: 60 60 87
Width: 580
VWidth: 2805
Flags: W
HStem: 312 582<339.562 424>
VStem: 93 424
LayerCount: 2
Fore
SplineSet
356 339 m 2
 93 603 l 1
 356 867 l 2
 374 885 393 894 411 894 c 0
 424 894 436 889 446 878 c 2
 502 822 l 2
 512 812 517 799 517 786 c 0
 517 768 508 749 491 732 c 2
 362 603 l 1
 491 474 l 2
 508 457 517 437 517 419 c 0
 517 405 512 393 502 382 c 2
 446 328 l 2
 436 317 424 312 411 312 c 0
 393 312 374 321 356 339 c 2
EndSplineSet
Validated: 1
EndChar

StartChar: greater
Encoding: 62 62 88
Width: 580
VWidth: 2805
Flags: W
HStem: 312 582<169 254.5>
VStem: 76 426
LayerCount: 2
Fore
SplineSet
238 339 m 2
 220 321 201 312 183 312 c 0
 169 312 157 317 146 328 c 2
 93 382 l 2
 82 393 76 406 76 420 c 0
 76 438 85 457 104 474 c 2
 233 603 l 1
 104 732 l 2
 85 749 76 769 76 786 c 0
 76 800 82 812 93 822 c 2
 146 878 l 2
 157 889 169 894 183 894 c 0
 201 894 220 885 238 867 c 2
 502 603 l 1
 238 339 l 2
EndSplineSet
Validated: 1
EndChar
